<svg xmlns="http://www.w3.org/2000/svg" xmlns:xlink="http://www.w3.org/1999/xlink" width="200" zoomAndPan="magnify" viewBox="0 0 150 149.999998" height="200" preserveAspectRatio="xMidYMid meet" version="1.0"><defs><clipPath id="0b34a09e1b"><path d="M 75 0 C 33.578125 0 0 33.578125 0 75 C 0 116.421875 33.578125 150 75 150 C 116.421875 150 150 116.421875 150 75 C 150 33.578125 116.421875 0 75 0 Z M 75 0 " clip-rule="nonzero"/></clipPath><clipPath id="98d7b62dad"><path d="M 0 0 L 150 0 L 150 150 L 0 150 Z M 0 0 " clip-rule="nonzero"/></clipPath><clipPath id="cc206093cf"><path d="M 75 0 C 33.578125 0 0 33.578125 0 75 C 0 116.421875 33.578125 150 75 150 C 116.421875 150 150 116.421875 150 75 C 150 33.578125 116.421875 0 75 0 Z M 75 0 " clip-rule="nonzero"/></clipPath><clipPath id="b1d8f3dbfa"><rect x="0" width="150" y="0" height="150"/></clipPath><clipPath id="1d673c52fc"><path d="M 25.941406 76.699219 L 124.058594 76.699219 L 124.058594 150 L 25.941406 150 Z M 25.941406 76.699219 " clip-rule="nonzero"/></clipPath><clipPath id="a54ab5c8dd"><path d="M 75 76.699219 C 47.90625 76.699219 25.941406 98.664062 25.941406 125.757812 C 25.941406 152.851562 47.90625 174.8125 75 174.8125 C 102.09375 174.8125 124.058594 152.851562 124.058594 125.757812 C 124.058594 98.664062 102.09375 76.699219 75 76.699219 Z M 75 76.699219 " clip-rule="nonzero"/></clipPath><clipPath id="d358ec61ed"><path d="M 0.941406 0.699219 L 99.058594 0.699219 L 99.058594 74 L 0.941406 74 Z M 0.941406 0.699219 " clip-rule="nonzero"/></clipPath><clipPath id="0082d50bc1"><path d="M 50 0.699219 C 22.90625 0.699219 0.941406 22.664062 0.941406 49.757812 C 0.941406 76.851562 22.90625 98.8125 50 98.8125 C 77.09375 98.8125 99.058594 76.851562 99.058594 49.757812 C 99.058594 22.664062 77.09375 0.699219 50 0.699219 Z M 50 0.699219 " clip-rule="nonzero"/></clipPath><clipPath id="3d64e2ce87"><rect x="0" width="100" y="0" height="74"/></clipPath><clipPath id="c5d28642b1"><path d="M 52.917969 27.367188 L 97.082031 27.367188 L 97.082031 71.527344 L 52.917969 71.527344 Z M 52.917969 27.367188 " clip-rule="nonzero"/></clipPath><clipPath id="14852a8848"><path d="M 75 27.367188 C 62.804688 27.367188 52.917969 37.25 52.917969 49.445312 C 52.917969 61.640625 62.804688 71.527344 75 71.527344 C 87.195312 71.527344 97.082031 61.640625 97.082031 49.445312 C 97.082031 37.25 87.195312 27.367188 75 27.367188 Z M 75 27.367188 " clip-rule="nonzero"/></clipPath><clipPath id="aa4c189cf0"><path d="M 0.917969 0.367188 L 45.082031 0.367188 L 45.082031 44.527344 L 0.917969 44.527344 Z M 0.917969 0.367188 " clip-rule="nonzero"/></clipPath><clipPath id="7aa85b510d"><path d="M 23 0.367188 C 10.804688 0.367188 0.917969 10.25 0.917969 22.445312 C 0.917969 34.640625 10.804688 44.527344 23 44.527344 C 35.195312 44.527344 45.082031 34.640625 45.082031 22.445312 C 45.082031 10.25 35.195312 0.367188 23 0.367188 Z M 23 0.367188 " clip-rule="nonzero"/></clipPath><clipPath id="022e472415"><rect x="0" width="46" y="0" height="45"/></clipPath></defs><g clip-path="url(#0b34a09e1b)"><g transform="matrix(1, 0, 0, 1, 0, -0.000000000000007527)"><g clip-path="url(#b1d8f3dbfa)"><g clip-path="url(#98d7b62dad)"><g clip-path="url(#cc206093cf)"><rect x="-33" width="216" fill="#d9d9d9" height="215.999996" y="-32.999999" fill-opacity="1"/></g></g></g></g></g><g clip-path="url(#1d673c52fc)"><g clip-path="url(#a54ab5c8dd)"><g transform="matrix(1, 0, 0, 1, 25, 76)"><g clip-path="url(#3d64e2ce87)"><g clip-path="url(#d358ec61ed)"><g clip-path="url(#0082d50bc1)"><path fill="#ffffff" d="M 0.941406 0.699219 L 99.058594 0.699219 L 99.058594 98.8125 L 0.941406 98.8125 Z M 0.941406 0.699219 " fill-opacity="1" fill-rule="nonzero"/></g></g></g></g></g></g><g clip-path="url(#c5d28642b1)"><g clip-path="url(#14852a8848)"><g transform="matrix(1, 0, 0, 1, 52, 27)"><g clip-path="url(#022e472415)"><g clip-path="url(#aa4c189cf0)"><g clip-path="url(#7aa85b510d)"><path fill="#ffffff" d="M 0.917969 0.367188 L 45.082031 0.367188 L 45.082031 44.527344 L 0.917969 44.527344 Z M 0.917969 0.367188 " fill-opacity="1" fill-rule="nonzero"/></g></g></g></g></g></g></svg>